<svg xmlns="http://www.w3.org/2000/svg" viewBox="0 0 32 32" style="image-rendering:pixelated;">
  <!-- Snow peak -->
  <rect x="14" y="4" width="4" height="4" fill="#ffffff"/>
  <!-- Snow row -->
  <rect x="10" y="8" width="4" height="4" fill="#ffffff"/>
  <rect x="14" y="8" width="4" height="4" fill="#e2e8f0"/>
  <rect x="18" y="8" width="4" height="4" fill="#ffffff"/>
  <!-- Mountain body -->
  <rect x="6" y="12" width="4" height="4" fill="#4ade80"/>
  <rect x="10" y="12" width="4" height="4" fill="#4ade80"/>
  <rect x="14" y="12" width="4" height="4" fill="#22c55e"/>
  <rect x="18" y="12" width="4" height="4" fill="#4ade80"/>
  <rect x="22" y="12" width="4" height="4" fill="#4ade80"/>
  <!-- Mountain mid -->
  <rect x="2" y="16" width="4" height="4" fill="#22c55e"/>
  <rect x="6" y="16" width="4" height="4" fill="#4ade80"/>
  <rect x="10" y="16" width="4" height="4" fill="#22c55e"/>
  <rect x="14" y="16" width="4" height="4" fill="#4ade80"/>
  <rect x="18" y="16" width="4" height="4" fill="#22c55e"/>
  <rect x="22" y="16" width="4" height="4" fill="#4ade80"/>
  <rect x="26" y="16" width="4" height="4" fill="#22c55e"/>
  <!-- Mountain wide -->
  <rect x="0" y="20" width="4" height="4" fill="#4ade80"/>
  <rect x="4" y="20" width="4" height="4" fill="#22c55e"/>
  <rect x="8" y="20" width="4" height="4" fill="#4ade80"/>
  <rect x="12" y="20" width="4" height="4" fill="#22c55e"/>
  <rect x="16" y="20" width="4" height="4" fill="#4ade80"/>
  <rect x="20" y="20" width="4" height="4" fill="#22c55e"/>
  <rect x="24" y="20" width="4" height="4" fill="#4ade80"/>
  <rect x="28" y="20" width="4" height="4" fill="#22c55e"/>
  <!-- Base -->
  <rect x="0" y="24" width="32" height="4" fill="#16a34a"/>
  <!-- Ground -->
  <rect x="0" y="28" width="32" height="4" fill="#15803d"/>
  <!-- Outline — single path tracing the staircase silhouette -->
  <path d="M14,4 h4 v4 h4 v4 h4 v4 h4 v4 h2 v12 h-32 v-12 h2 v-4 h4 v-4 h4 v-4 h4 z" fill="none" stroke="#1a1a1a" stroke-width="1.25" stroke-linejoin="miter"/>
</svg>
